<?xml version="1.0" encoding="UTF-8"?>
<svg version="1.1" xmlns="http://www.w3.org/2000/svg" width="278" height="250">
<path d="M0 0 C91.74 0 183.48 0 278 0 C278 82.5 278 165 278 250 C186.26 250 94.52 250 0 250 C0 167.5 0 85 0 0 Z " fill="#FDFEFE" transform="translate(0,0)"/>
<path d="M0 0 C1.57044157 1.43755805 3.00246129 2.94022356 4.4296875 4.51953125 C6.21053888 6.19849313 7.912277 7.09212377 10.125 8.125 C14.79105881 10.30664963 17.28486379 12.21215948 19.25 17.125 C21.43257539 28.4016395 19.16558069 37.48237091 12.9453125 47.21484375 C6.13166344 56.56298164 -1.12365625 63.9644566 -11 70 C-10.85866501 71.77119803 -10.71176792 73.54195287 -10.5625 75.3125 C-10.48128906 76.29863281 -10.40007812 77.28476563 -10.31640625 78.30078125 C-10.08187441 81.09375599 -10.08187441 81.09375599 -9 84 C-7.3700823 95.16864057 -11.58181782 105.20610428 -17.60546875 114.46875 C-18.06566406 114.9740625 -18.52585938 115.479375 -19 116 C-19.66 116 -20.32 116 -21 116 C-21.34804688 116.85078125 -21.34804688 116.85078125 -21.703125 117.71875 C-25.42399711 124.26389853 -32.75211663 128.99494656 -39 133 C-39.33 133.66 -39.66 134.32 -40 135 C-27.13 135 -14.26 135 -1 135 C-1 137.31 -1 139.62 -1 142 C-34.99 142 -68.98 142 -104 142 C-104 139.69 -104 137.38 -104 135 C-102.02 135 -100.04 135 -98 135 C-99.03712176 132.91738855 -99.03712176 132.91738855 -101 131 C-104.60465748 130.18685089 -104.60465748 130.18685089 -108 130 C-107.3411836 115.46060352 -104.71876817 101.7823787 -100.62597656 87.85058594 C-99.73551977 84.80285096 -99 82.19388998 -99 79 C-99.57105469 79.13277344 -100.14210938 79.26554687 -100.73046875 79.40234375 C-107.79328805 80.94066846 -114.79139345 81.57064726 -122 82 C-122.18433594 83.02738281 -122.36867188 84.05476563 -122.55859375 85.11328125 C-125.01867566 97.38399761 -129.66745111 105.58277555 -140.1875 112.9375 C-154.30432893 121.09389005 -170.39517178 122.18972456 -186.0078125 118.12109375 C-190.9127047 116.28335999 -195.18224138 113.58934571 -199 110 C-199.33 109.01 -199.66 108.02 -200 107 C-201.485 106.505 -201.485 106.505 -203 106 C-206.92223787 101.12710737 -209.589791 96.09621813 -212.0625 90.375 C-212.57683594 89.1979248 -212.57683594 89.1979248 -213.1015625 87.99707031 C-220.32498886 71.15385277 -220.32498886 71.15385277 -220 62 C-218.99839844 61.60167969 -217.99679688 61.20335938 -216.96484375 60.79296875 C-215.62237704 60.25785964 -214.27993019 59.72270072 -212.9375 59.1875 C-212.28072266 58.92646484 -211.62394531 58.66542969 -210.94726562 58.39648438 C-210.29306641 58.13544922 -209.63886719 57.87441406 -208.96484375 57.60546875 C-208.30597168 57.34427246 -207.64709961 57.08307617 -206.96826172 56.81396484 C-205.65958573 56.2727684 -204.36351583 55.6999918 -203.08251953 55.09619141 C-198.48265003 52.93812179 -198.48265003 52.93812179 -195.5625 53.3125 C-195.046875 53.539375 -194.53125 53.76625 -194 54 C-193.92523438 54.680625 -193.85046875 55.36125 -193.7734375 56.0625 C-191.91567595 69.75893809 -187.6015192 83.12615813 -177.19921875 92.6484375 C-172.35677162 96.2777664 -167.73306986 96.69585257 -161.77734375 96.41796875 C-157.9245469 95.83815263 -155.78741393 94.71594178 -153 92 C-150.23883959 87.44639179 -149.63649604 84.10745996 -149.75 78.8125 C-149.77320313 76.99685547 -149.77320313 76.99685547 -149.796875 75.14453125 C-149.86789766 71.97228017 -149.86789766 71.97228017 -151 69 C-156.61 69 -162.22 69 -168 69 C-167.53316395 64.17602751 -166.9674526 59.39889807 -166.125 54.625 C-165.98320312 53.81289062 -165.84140625 53.00078125 -165.6953125 52.1640625 C-164.86647294 49.58441578 -164.19300779 48.59100565 -162 47 C-159.29296875 46.19140625 -159.29296875 46.19140625 -156.1875 45.5625 C-150.75507493 44.30128402 -146.04623101 43.17446112 -142.859375 38.23046875 C-141.78768626 35.44894935 -141.80423836 33.22198877 -141.875 30.25 C-141.89304687 29.26515625 -141.91109375 28.2803125 -141.9296875 27.265625 C-141.95289063 26.51796875 -141.97609375 25.7703125 -142 25 C-157.34054334 24.18161566 -157.34054334 24.18161566 -171.6875 28.90625 C-174 30 -174 30 -178 30 C-180.29612756 16.3667426 -180.29612756 16.3667426 -180 10 C-164.05777902 2.63276152 -144.49994091 -3.36624762 -127.14453125 2.9609375 C-121.63551817 5.63014966 -116.42335896 9.19868556 -113.62109375 14.828125 C-111.26077481 23.08181891 -112.67803228 32.22034909 -116 40 C-117.875 43.1875 -117.875 43.1875 -120 46 C-120.41636719 46.60972656 -120.83273438 47.21945313 -121.26171875 47.84765625 C-123.39312737 50.96476135 -124.79095585 52.86063723 -128 55 C-128.72382467 57.05925139 -128.72382467 57.05925139 -129 59 C-111.28813359 58.58442868 -111.28813359 58.58442868 -94 55 C-91.68337107 47.24504357 -90.07136935 39.45898771 -88.6484375 31.50390625 C-88.1824185 28.98571925 -87.6211204 26.48448162 -87 24 C-90.96 24 -94.92 24 -99 24 C-97.57142857 4.57142857 -97.57142857 4.57142857 -94 1 C-90.88997893 0.74934159 -87.80345423 0.56883717 -84.6875 0.4375 C-83.25253174 0.37381226 -83.25253174 0.37381226 -81.78857422 0.30883789 C-69.19756581 -0.18946846 -56.59814057 -0.0900065 -44 0 C-43.67 1.32 -43.34 2.64 -43 4 C-41.96359375 3.57847656 -40.9271875 3.15695313 -39.859375 2.72265625 C-38.48963909 2.16913284 -37.11984432 1.61575506 -35.75 1.0625 C-35.06808594 0.78470703 -34.38617188 0.50691406 -33.68359375 0.22070312 C-23.38989936 -3.92675626 -10.06615812 -5.59231007 0 0 Z " fill="#478DFB" transform="translate(248,60)"/>
<path d="M0 0 C0.71542969 -0.00773437 1.43085938 -0.01546875 2.16796875 -0.0234375 C5.93975618 -0.00933736 7.66381279 0.10920853 10.875 2.25 C11.184375 3.4565625 11.184375 3.4565625 11.5 4.6875 C13.18494609 7.8276268 14.07580375 7.93013284 17.375 9 C18.87444068 9.418675 20.37436001 9.83564418 21.875 10.25 C22.865 10.745 22.865 10.745 23.875 11.25 C24.40139553 24.21492691 21.38462423 30.89938541 13.875 41.25 C13.215 42.24 12.555 43.23 11.875 44.25 C11.215 44.25 10.555 44.25 9.875 44.25 C9.875 44.91 9.875 45.57 9.875 46.25 C9.215 46.25 8.555 46.25 7.875 46.25 C7.50375 47.178125 7.50375 47.178125 7.125 48.125 C5.66871361 50.60068687 4.49687494 51.20125002 1.875 52.25 C1.875 52.91 1.875 53.57 1.875 54.25 C0.1953125 55.9765625 0.1953125 55.9765625 -2 57.875 C-2.71929687 58.50664063 -3.43859375 59.13828125 -4.1796875 59.7890625 C-6.125 61.25 -6.125 61.25 -8.125 61.25 C-8.125 61.91 -8.125 62.57 -8.125 63.25 C-8.785 63.25 -9.445 63.25 -10.125 63.25 C-9.16976793 65.89525803 -8.26800693 68.06123085 -6.5625 70.3125 C-3.49294502 74.44972627 -3.73911036 79.26035724 -4.125 84.25 C-4.65817846 86.97616463 -5.36058675 89.57455363 -6.125 92.25 C-6.785 92.25 -7.445 92.25 -8.125 92.25 C-8.26421875 93.33667969 -8.26421875 93.33667969 -8.40625 94.4453125 C-10.56344958 102.86308044 -19.04710114 109.74588254 -26.125 114.25 C-36.56660903 120.23204696 -45.18677249 122.4469861 -57.125 122.3125 C-57.89972656 122.30798828 -58.67445313 122.30347656 -59.47265625 122.29882812 C-61.35680524 122.28719758 -63.24091365 122.26926906 -65.125 122.25 C-65.00933563 120.08281491 -64.88197759 117.91625284 -64.75 115.75 C-64.68039063 114.5434375 -64.61078125 113.336875 -64.5390625 112.09375 C-64.18646627 108.82059255 -63.57630337 105.83234182 -62.72705078 102.66015625 C-61.96751283 99.61954041 -61.3655755 96.55889133 -60.7578125 93.484375 C-60.51160156 92.26492187 -60.26539063 91.04546875 -60.01171875 89.7890625 C-59.50118623 87.24949049 -59.00128959 84.7077586 -58.51171875 82.1640625 C-58.26292969 80.94976562 -58.01414063 79.73546875 -57.7578125 78.484375 C-57.54012207 77.38319336 -57.32243164 76.28201172 -57.09814453 75.14746094 C-56.0021294 71.88416249 -54.80085189 70.38008919 -52.125 68.25 C-51.465 68.25 -50.805 68.25 -50.125 68.25 C-50.125 67.59 -50.125 66.93 -50.125 66.25 C-48.41015625 64.55859375 -48.41015625 64.55859375 -46.1875 62.6875 C-45.45660156 62.06746094 -44.72570312 61.44742188 -43.97265625 60.80859375 C-43.36292969 60.29425781 -42.75320312 59.77992187 -42.125 59.25 C-40.92011076 58.23484742 -40.92011076 58.23484742 -40.75 56.1875 C-41.15451653 53.01878719 -41.78529894 52.18200992 -43.625 49.6875 C-47.11132584 44.41331476 -46.95690329 39.37439281 -46.125 33.25 C-44.32382061 25.58659699 -40.16213954 19.30029943 -34.125 14.25 C-30.75 13.5 -30.75 13.5 -28.125 13.25 C-26.67208727 10.78744315 -26.67208727 10.78744315 -26.125 8.25 C-25.465 8.25 -24.805 8.25 -24.125 8.25 C-24.125 7.59 -24.125 6.93 -24.125 6.25 C-23.02091797 5.85167969 -23.02091797 5.85167969 -21.89453125 5.4453125 C-20.91871094 5.09210938 -19.94289062 4.73890625 -18.9375 4.375 C-17.49310547 3.85292969 -17.49310547 3.85292969 -16.01953125 3.3203125 C-13.18219625 2.31972463 -13.18219625 2.31972463 -10.76953125 1.1328125 C-7.18252596 -0.06462206 -3.73677557 -0.04083908 0 0 Z " fill="#F8FBFD" transform="translate(232.125,67.75)"/>
<path d="M0 0 C0.9342984 -0.00319244 1.8685968 -0.00638489 2.83120728 -0.00967407 C8.91043108 0.01980608 8.91043108 0.01980608 10.0390625 1.1484375 C10.18084107 4.14847195 10.08135021 7.14600985 10.0390625 10.1484375 C-3.61672143 11.11640058 -17.2804951 11.61269858 -30.9609375 12.0859375 C-33.39363788 12.17174228 -35.8263364 12.25759961 -38.2590332 12.34350586 C-51.8814524 12.82055556 -65.50467609 13.26587653 -79.12890625 13.6875 C-79.8415073 13.70958338 -80.55410835 13.73166676 -81.28830338 13.75441933 C-88.92450031 13.99084692 -96.56079295 14.22357923 -104.19726562 14.45092773 C-116.17456789 14.81168419 -128.14627729 15.18721362 -140.11235046 15.8296051 C-145.81264058 16.1288249 -151.50305568 16.24354011 -157.2109375 16.2734375 C-158.36031548 16.28056007 -158.36031548 16.28056007 -159.53291321 16.28782654 C-164.83791924 16.27145576 -164.83791924 16.27145576 -165.9609375 15.1484375 C-166.0588432 13.65105626 -166.09068614 12.14900858 -166.0859375 10.6484375 C-166.08851563 9.83375 -166.09109375 9.0190625 -166.09375 8.1796875 C-165.9609375 6.1484375 -165.9609375 6.1484375 -164.9609375 5.1484375 C-163.39288412 5.01108472 -161.81883846 4.94166822 -160.24536133 4.89892578 C-159.2184166 4.8685321 -158.19147186 4.83813843 -157.13340759 4.80682373 C-155.98981277 4.7777594 -154.84621796 4.74869507 -153.66796875 4.71875 C-151.85583641 4.66645233 -151.85583641 4.66645233 -150.00709534 4.61309814 C-147.34344961 4.53651214 -144.67981377 4.46159327 -142.01605225 4.38934326 C-134.68355515 4.19011668 -127.35155485 3.97364894 -120.01953125 3.7578125 C-119.23588951 3.73490017 -118.45224777 3.71198784 -117.64485931 3.6883812 C-104.19752228 3.29401723 -90.752982 2.83552577 -77.30859375 2.3515625 C-75.38143445 2.28249197 -73.45427483 2.21343069 -71.52711487 2.14437866 C-63.93434455 1.87175298 -56.34160797 1.59838021 -48.74917603 1.31646729 C-14.06678278 0.03003042 -14.06678278 0.03003042 0 0 Z " fill="#4A8CF5" transform="translate(173.9609375,204.8515625)"/>
<path d="M0 0 C1.57044157 1.43755805 3.00246129 2.94022356 4.4296875 4.51953125 C6.21053888 6.19849313 7.912277 7.09212377 10.125 8.125 C14.79105881 10.30664963 17.28486379 12.21215948 19.25 17.125 C21.43257539 28.4016395 19.16558069 37.48237091 12.9453125 47.21484375 C6.13166344 56.56298164 -1.12365625 63.9644566 -11 70 C-10.85866501 71.77119803 -10.71176792 73.54195287 -10.5625 75.3125 C-10.48128906 76.29863281 -10.40007812 77.28476563 -10.31640625 78.30078125 C-10.08187441 81.09375599 -10.08187441 81.09375599 -9 84 C-7.3700823 95.16864057 -11.58181782 105.20610428 -17.60546875 114.46875 C-18.06566406 114.9740625 -18.52585938 115.479375 -19 116 C-19.66 116 -20.32 116 -21 116 C-21.33 116.66 -21.66 117.32 -22 118 C-22 116.35 -22 114.7 -22 113 C-21.34 113 -20.68 113 -20 113 C-20 112.01 -20 111.02 -20 110 C-19.34 110 -18.68 110 -18 110 C-18 108.35 -18 106.7 -18 105 C-17.01 105.495 -17.01 105.495 -16 106 C-16 104.35 -16 102.7 -16 101 C-16.99 100.505 -16.99 100.505 -18 100 C-17.18273437 99.649375 -16.36546875 99.29875 -15.5234375 98.9375 C-12.64914196 97.18937082 -12.64914196 97.18937082 -12.4765625 93.75 C-12.52554688 92.5125 -12.57453125 91.275 -12.625 90 C-12.65851563 88.7625 -12.69203125 87.525 -12.7265625 86.25 C-12.8722915 82.99049492 -12.8722915 82.99049492 -14 80 C-13.979375 78.989375 -13.95875 77.97875 -13.9375 76.9375 C-13.66376157 73.87496819 -13.66376157 73.87496819 -16 72 C-16 71.01 -16 70.02 -16 69 C-16.598125 69.33 -17.19625 69.66 -17.8125 70 C-20 71 -20 71 -23 71 C-22.01 73.31 -21.02 75.62 -20 78 C-19.34 76.35 -18.68 74.7 -18 73 C-16.89788361 76.30634918 -17.15012854 76.81014913 -18 80 C-18.1489812 82.06090656 -18.27144577 84.12381209 -18.375 86.1875 C-18.77906914 91.90219207 -19.84591493 96.71369939 -22 102 C-22.391875 103.010625 -22.78375 104.02125 -23.1875 105.0625 C-23.455625 105.701875 -23.72375 106.34125 -24 107 C-24.66 107 -25.32 107 -26 107 C-26.66 108.65 -27.32 110.3 -28 112 C-28.99 112 -29.98 112 -31 112 C-30.57847656 111.38511719 -30.15695313 110.77023438 -29.72265625 110.13671875 C-29.17480469 109.32847656 -28.62695312 108.52023438 -28.0625 107.6875 C-27.51722656 106.88699219 -26.97195312 106.08648437 -26.41015625 105.26171875 C-24.86162674 102.9741857 -24.86162674 102.9741857 -24 100 C-23.34 100 -22.68 100 -22 100 C-21.74887452 97.47966841 -21.52373767 94.96123432 -21.3125 92.4375 C-21.20325195 91.38079102 -21.20325195 91.38079102 -21.09179688 90.30273438 C-20.67663008 85.00325229 -21.5008564 81.707413 -24 77 C-24.99 76.01 -24.99 76.01 -26 75 C-26 73.68 -26 72.36 -26 71 C-25.34 71 -24.68 71 -24 71 C-24 70.34 -24 69.68 -24 69 C-22.3203125 67.2734375 -22.3203125 67.2734375 -20.125 65.375 C-19.40570313 64.74335937 -18.68640625 64.11171875 -17.9453125 63.4609375 C-16 62 -16 62 -14 62 C-14 61.34 -14 60.68 -14 60 C-12.34997172 58.64613064 -10.6825613 57.31321858 -9 56 C-8.505 55.01 -8.505 55.01 -8 54 C-7.34 54 -6.68 54 -6 54 C-6 53.34 -6 52.68 -6 52 C-5.34 52 -4.68 52 -4 52 C-3.75378906 51.46375 -3.50757813 50.9275 -3.25390625 50.375 C-1.11290125 46.31976312 1.61793558 42.64313117 4.22265625 38.875 C7.02591519 34.34049763 7.19240996 30.53700056 7.5625 25.25 C7.68818359 23.49429688 7.68818359 23.49429688 7.81640625 21.703125 C7.87699219 20.81109375 7.93757813 19.9190625 8 19 C6.96939453 18.83564453 6.96939453 18.83564453 5.91796875 18.66796875 C5.01691406 18.50941406 4.11585938 18.35085937 3.1875 18.1875 C2.29417969 18.03667969 1.40085937 17.88585937 0.48046875 17.73046875 C-2.24540241 16.92773189 -3.37423945 16.31711387 -5 14 C-5 12.68 -5 11.36 -5 10 C-8.66351581 8.77882806 -12.06052972 8.81593646 -15.875 8.8125 C-16.58269531 8.80025391 -17.29039062 8.78800781 -18.01953125 8.77539062 C-22.1788211 8.7637725 -25.22946021 9.29041834 -29 11 C-29.99 11 -30.98 11 -32 11 C-32 10.01 -32 9.02 -32 8 C-28.28111134 7.1367399 -24.85703512 6.88278444 -21.04296875 6.90234375 C-19.93115234 6.90556641 -18.81933594 6.90878906 -17.67382812 6.91210938 C-16.52333984 6.92048828 -15.37285156 6.92886719 -14.1875 6.9375 C-13.01767578 6.94201172 -11.84785156 6.94652344 -10.64257812 6.95117188 C-7.76166642 6.9629307 -4.88085956 6.97936574 -2 7 C-1.505 8.98 -1.505 8.98 -1 11 C-0.01 10.67 0.98 10.34 2 10 C2.495 10.99 2.495 10.99 3 12 C3.99 11.67 4.98 11.34 6 11 C5.505 9.515 5.505 9.515 5 8 C4.34 8 3.68 8 3 8 C2.505 6.02 2.505 6.02 2 4 C1.34 4 0.68 4 0 4 C0 3.34 0 2.68 0 2 C-11.94333264 -1.89986372 -24.11457497 -0.36720304 -36 3 C-36 3.66 -36 4.32 -36 5 C-38.97 5 -41.94 5 -45 5 C-45 4.01 -45 3.02 -45 2 C-53.91 1.67 -62.82 1.34 -72 1 C-72 0.67 -72 0.34 -72 0 C-62.76 0 -53.52 0 -44 0 C-43.67 1.32 -43.34 2.64 -43 4 C-41.96359375 3.57847656 -40.9271875 3.15695313 -39.859375 2.72265625 C-38.48963909 2.16913284 -37.11984432 1.61575506 -35.75 1.0625 C-35.06808594 0.78470703 -34.38617188 0.50691406 -33.68359375 0.22070312 C-23.38989936 -3.92675626 -10.06615812 -5.59231007 0 0 Z " fill="#528DF0" transform="translate(248,60)"/>
<path d="M0 0 C4.23477309 2.67459353 5.89432493 7.25629728 7 12 C7.10076474 17.74359037 5.15012262 20.60367128 1.47265625 24.71484375 C0 26 0 26 -2 26 C-2.24105469 26.59425781 -2.48210937 27.18851563 -2.73046875 27.80078125 C-4.25169525 30.43601362 -5.77597536 31.52916709 -8.3125 33.1875 C-9.07175781 33.69667969 -9.83101562 34.20585938 -10.61328125 34.73046875 C-13.10281797 36.05469041 -15.22328716 36.59209351 -18 37 C-18.98113243 35.70982586 -19.95984199 34.41780894 -20.9375 33.125 C-21.48277344 32.40570313 -22.02804688 31.68640625 -22.58984375 30.9453125 C-25.31751813 27.18248192 -25.30006081 24.65094252 -25 20 C-23.06731587 12.14041788 -17.90628688 5.0987075 -10.99609375 0.734375 C-7.36073512 -0.60309549 -3.80519683 -0.54761135 0 0 Z " fill="#498DF7" transform="translate(230,84)"/>
<path d="M0 0 C3.87264408 6.49604814 5.82558891 11.2244535 5 19 C3.28271412 23.69994029 1.13393334 26.20959499 -3 29 C-8.52414552 30.84138184 -13.94053424 30.79150747 -19.3125 28.4375 C-23.34543657 26.13872615 -25.65457227 23.4635474 -27 19 C-27.39314177 14.04641374 -27.39314177 14.04641374 -26 11 C-18.73645255 2.57784989 -10.98657054 -0.26158501 0 0 Z " fill="#488BF5" transform="translate(204,141)"/>
<path d="M0 0 C0 0.33 0 0.66 0 1 C-0.92296875 1.04898438 -1.8459375 1.09796875 -2.796875 1.1484375 C-11.47490918 1.64579519 -20.10421522 2.36105797 -28.74902344 3.26904297 C-34.65235273 3.88507247 -40.54065959 4.34424524 -46.46875 4.65625 C-49.04784258 5.00649714 -50.76709543 5.69396148 -53 7 C-53.495 6.01 -53.495 6.01 -54 5 C-56.60508636 5.11391632 -59.20845546 5.24065548 -61.8125 5.375 C-62.55048828 5.4059375 -63.28847656 5.436875 -64.04882812 5.46875 C-67.81893115 5.67346148 -69.79650741 5.86433827 -73 8 C-71.40282421 9.59717579 -69.736438 9.12985789 -67.5234375 9.1328125 C-66.56107178 9.13474609 -65.59870605 9.13667969 -64.60717773 9.13867188 C-63.54055908 9.13416016 -62.47394043 9.12964844 -61.375 9.125 C-60.24457275 9.12306641 -59.11414551 9.12113281 -57.94946289 9.11914062 C-49.76933119 9.07895713 -41.61056584 8.82157981 -33.4375 8.5 C-8.97649737 7.55575427 15.52585934 7.91410669 40 8 C40 8.33 40 8.66 40 9 C38.94416214 9.03536362 37.88832428 9.07072723 36.80049133 9.10716248 C26.75585214 9.44378585 16.7112669 9.78198171 6.66672993 10.12164211 C1.50514027 10.29613496 -3.65646565 10.47011041 -8.81811523 10.64282227 C-13.81730798 10.81011863 -18.81644948 10.97887997 -23.81556129 11.14857674 C-25.70449955 11.2124552 -27.59345451 11.2758421 -29.4824276 11.33868217 C-40.23214976 11.69665892 -50.97550047 12.10846584 -61.71669292 12.67178249 C-67.56205952 12.96859099 -73.3973349 13.09511076 -79.25 13.125 C-80.39834934 13.13210039 -80.39834934 13.13210039 -81.56989765 13.13934422 C-86.87690528 13.12309472 -86.87690528 13.12309472 -88 12 C-88.0979057 10.50261876 -88.12974864 9.00057108 -88.125 7.5 C-88.12757812 6.6853125 -88.13015625 5.870625 -88.1328125 5.03125 C-88 3 -88 3 -87 2 C-85.09318822 1.84667897 -83.18086579 1.76151908 -81.26879883 1.70288086 C-80.0385347 1.66291489 -78.80827057 1.62294891 -77.54072571 1.58177185 C-76.17949988 1.54259885 -74.8182682 1.50362854 -73.45703125 1.46484375 C-72.05383823 1.42175813 -70.65065534 1.37834144 -69.2474823 1.33460999 C-66.28575793 1.2433697 -63.32395809 1.15549806 -60.36206055 1.07006836 C-56.6337751 0.96237387 -52.90575115 0.84763025 -49.17775154 0.73050499 C-32.78240856 0.21788293 -16.4053882 -0.14921023 0 0 Z " fill="#6F9EE9" transform="translate(96,208)"/>
<path d="M0 0 C1.57044157 1.43755805 3.00246129 2.94022356 4.4296875 4.51953125 C6.21053888 6.19849313 7.912277 7.09212377 10.125 8.125 C14.79105881 10.30664963 17.28486379 12.21215948 19.25 17.125 C21.17575706 27.07474479 19.6778868 34.91505142 15 44 C12.828125 46.3828125 12.828125 46.3828125 11 48 C11.69941596 44.85262818 12.76078698 41.97411124 14 39 C14.66 39 15.32 39 16 39 C16.66 33.06 17.32 27.12 18 21 C16.515 21.495 16.515 21.495 15 22 C14.34 21.67 13.68 21.34 13 21 C12.81824219 22.28197266 12.81824219 22.28197266 12.6328125 23.58984375 C12.46523438 24.69457031 12.29765625 25.79929687 12.125 26.9375 C11.96257812 28.03964844 11.80015625 29.14179687 11.6328125 30.27734375 C11.42398438 31.17582031 11.21515625 32.07429688 11 33 C10.01 33.495 10.01 33.495 9 34 C8.97421875 33.01257813 8.9484375 32.02515625 8.921875 31.0078125 C8.86515625 29.72648437 8.8084375 28.44515625 8.75 27.125 C8.70359375 25.84882812 8.6571875 24.57265625 8.609375 23.2578125 C8.36981073 19.95964201 8.36981073 19.95964201 6.1796875 18.6171875 C4.2470842 18.06996291 2.31126029 17.53414077 0.375 17 C-3 16 -3 16 -5 14 C-5 12.68 -5 11.36 -5 10 C-8.66351581 8.77882806 -12.06052972 8.81593646 -15.875 8.8125 C-16.58269531 8.80025391 -17.29039062 8.78800781 -18.01953125 8.77539062 C-22.1788211 8.7637725 -25.22946021 9.29041834 -29 11 C-29.99 11 -30.98 11 -32 11 C-32 10.01 -32 9.02 -32 8 C-28.28111134 7.1367399 -24.85703512 6.88278444 -21.04296875 6.90234375 C-19.93115234 6.90556641 -18.81933594 6.90878906 -17.67382812 6.91210938 C-16.52333984 6.92048828 -15.37285156 6.92886719 -14.1875 6.9375 C-13.01767578 6.94201172 -11.84785156 6.94652344 -10.64257812 6.95117188 C-7.76166642 6.9629307 -4.88085956 6.97936574 -2 7 C-1.505 8.98 -1.505 8.98 -1 11 C-0.01 10.67 0.98 10.34 2 10 C2.495 10.99 2.495 10.99 3 12 C3.99 11.67 4.98 11.34 6 11 C5.505 9.515 5.505 9.515 5 8 C4.34 8 3.68 8 3 8 C2.505 6.02 2.505 6.02 2 4 C1.34 4 0.68 4 0 4 C0 3.34 0 2.68 0 2 C-11.94333264 -1.89986372 -24.11457497 -0.36720304 -36 3 C-36 3.66 -36 4.32 -36 5 C-38.97 5 -41.94 5 -45 5 C-45 4.01 -45 3.02 -45 2 C-53.91 1.67 -62.82 1.34 -72 1 C-72 0.67 -72 0.34 -72 0 C-62.76 0 -53.52 0 -44 0 C-43.67 1.32 -43.34 2.64 -43 4 C-41.96359375 3.57847656 -40.9271875 3.15695313 -39.859375 2.72265625 C-38.48963909 2.16913284 -37.11984432 1.61575506 -35.75 1.0625 C-35.06808594 0.78470703 -34.38617188 0.50691406 -33.68359375 0.22070312 C-23.38989936 -3.92675626 -10.06615812 -5.59231007 0 0 Z " fill="#5691ED" transform="translate(248,60)"/>
<path d="M0 0 C0.33 0 0.66 0 1 0 C1.0272415 1.41655793 1.04650467 2.83327045 1.0625 4.25 C1.07410156 5.03890625 1.08570313 5.8278125 1.09765625 6.640625 C1.00385306 8.90691002 0.63241063 10.8288895 0 13 C1.670625 12.9690625 1.670625 12.9690625 3.375 12.9375 C7 13 7 13 9 14 C9 14.66 9 15.32 9 16 C9.66 16 10.32 16 11 16 C10.42805835 19.31726155 9.42999536 20.72635823 7 23 C11.03848316 23.02481344 15.07693647 23.0429136 19.11547852 23.05493164 C20.48788222 23.05994454 21.86028062 23.06675658 23.23266602 23.07543945 C25.21107651 23.08763857 27.1895268 23.09272248 29.16796875 23.09765625 C30.95110474 23.10551147 30.95110474 23.10551147 32.77026367 23.11352539 C35.92897081 23.09588565 35.92897081 23.09588565 38.67700195 22.43139648 C41 22 41 22 42.8356781 22.46594238 C45.28337177 23.06992345 47.43167391 23.12002146 49.95214844 23.11352539 C50.93286316 23.11344986 51.91357788 23.11337433 52.92401123 23.11329651 C53.97518127 23.10813522 55.02635132 23.10297394 56.109375 23.09765625 C57.19132141 23.0962413 58.27326782 23.09482635 59.38800049 23.09336853 C62.8420285 23.08777318 66.29599159 23.0752215 69.75 23.0625 C72.09244698 23.0574844 74.43489498 23.0529216 76.77734375 23.04882812 C82.5182513 23.03780528 88.25912101 23.02107174 94 23 C91.3178719 21.65893595 89.11601968 21.78549581 86.1171875 21.68359375 C84.95058594 21.64169922 83.78398437 21.59980469 82.58203125 21.55664062 C81.35871094 21.51732422 80.13539063 21.47800781 78.875 21.4375 C77.64394531 21.39431641 76.41289062 21.35113281 75.14453125 21.30664062 C72.09647147 21.20031296 69.0483281 21.09828219 66 21 C65.84332796 17.54741235 65.85507857 16.24153571 67.6875 13.1875 C70 11 70 11 72.75 10.6875 C73.86375 10.8421875 73.86375 10.8421875 75 11 C71 15 71 15 67 19 C79.87 19 92.74 19 106 19 C106 21.31 106 23.62 106 26 C72.01 26 38.02 26 3 26 C3 23.69 3 21.38 3 19 C4.98 19 6.96 19 9 19 C7.96287824 16.91738855 7.96287824 16.91738855 6 15 C2.39534252 14.18685089 2.39534252 14.18685089 -1 14 C-0.67 9.38 -0.34 4.76 0 0 Z " fill="#518BEA" transform="translate(141,176)"/>
<path d="M0 0 C2 1 2 1 3 3 C2.34 3 1.68 3 1 3 C1.66 4.32 2.32 5.64 3 7 C2.01 7.33 1.02 7.66 0 8 C-0.33 8.66 -0.66 9.32 -1 10 C-0.34 10 0.32 10 1 10 C1 9.34 1 8.68 1 8 C6.75 7.875 6.75 7.875 9 9 C9 11.97 9 14.94 9 18 C7.41676312 18.027193 5.83338938 18.04648306 4.25 18.0625 C2.92742187 18.07990234 2.92742187 18.07990234 1.578125 18.09765625 C-0.7818838 18.00826198 -2.74498524 17.66912821 -5 17 C-5.59732819 19.76264289 -6 22.16032769 -6 25 C-8.97343996 23.97467587 -9.99860466 23.00202083 -11.8125 20.375 C-13.2718027 16.22750811 -13.76291215 13.04565738 -12 9 C-8.56966524 5.08833368 -4.97937859 1.65979286 0 0 Z " fill="#468BF5" transform="translate(190,143)"/>
<path d="M0 0 C2.97 0.495 2.97 0.495 6 1 C6.20852314 7.40629424 6.1583195 12.92972642 4 19 C3.34 19 2.68 19 2 19 C1.87625 19.7425 1.7525 20.485 1.625 21.25 C0.71536487 25.25239459 -0.63341177 28.50623094 -4 31 C-6.6875 31.1875 -6.6875 31.1875 -9 31 C-9 31.66 -9 32.32 -9 33 C-10.485 33.495 -10.485 33.495 -12 34 C-12.33 33.34 -12.66 32.68 -13 32 C-12 29 -12 29 -9 27 C-7.87675777 24.72646027 -7.87675777 24.72646027 -7 22.125 C-6.03274447 19.42474497 -5.26952387 17.3299461 -3.44921875 15.1015625 C-1.47097646 12.23284457 -1.25893987 9.68415283 -0.8125 6.25 C-0.65394531 5.07953125 -0.49539063 3.9090625 -0.33203125 2.703125 C-0.22246094 1.81109375 -0.11289062 0.9190625 0 0 Z " fill="#488CF8" transform="translate(260,80)"/>
<path d="M0 0 C0.495 0.99 0.495 0.99 1 2 C0.67 2.66 0.34 3.32 0 4 C-1.093125 3.773125 -2.18625 3.54625 -3.3125 3.3125 C-4.529375 3.209375 -5.74625 3.10625 -7 3 C-7.4630957 3.47445557 -7.92619141 3.94891113 -8.40332031 4.43774414 C-13.92476552 9.84014902 -30.00502159 7.109829 -37.25 7.0625 C-38.59244622 7.05746786 -39.9348943 7.05290802 -41.27734375 7.04882812 C-44.5182781 7.03717009 -47.75911369 7.02080774 -51 7 C-48.375 3.125 -48.375 3.125 -45 2 C-42.32228714 1.90355695 -39.67684323 1.8607108 -37 1.875 C-36.27554688 1.87113281 -35.55109375 1.86726562 -34.8046875 1.86328125 C-31.60717121 1.86918073 -29.05417393 1.98194202 -26 3 C-25.34 2.34 -24.68 1.68 -24 1 C-16.10586808 -0.23236816 -7.9728843 -0.14379952 0 0 Z " fill="#488CFB" transform="translate(71,211)"/>
<path d="M0 0 C3.87264408 6.49604814 5.82558891 11.2244535 5 19 C3.28271412 23.69994029 1.13393334 26.20959499 -3 29 C-7.99652074 30.66550691 -13.05772683 30.63421165 -18.0625 29 C-18.701875 28.67 -19.34125 28.34 -20 28 C-20.33 25.36 -20.66 22.72 -21 20 C-19.68 19.34 -18.36 18.68 -17 18 C-15.2925002 19.28062485 -13.62626404 20.61767557 -12 22 C-12 22.66 -12 23.32 -12 24 C-10.35 24 -8.7 24 -7 24 C-7 24.33 -7 24.66 -7 25 C-4.08365871 25.2502157 -4.08365871 25.2502157 -1 25 C1.18490007 22.32357511 1.18490007 22.32357511 1 20 C1.66 20 2.32 20 3 20 C2.91227545 18.10333474 2.80408699 16.20761007 2.6875 14.3125 C2.62949219 13.25675781 2.57148438 12.20101562 2.51171875 11.11328125 C1.94154057 7.64433462 1.26461055 5.69410565 -1 3 C-3.71655372 2.183093 -3.71655372 2.183093 -6.6875 2.1875 C-7.68136719 2.13980469 -8.67523438 2.09210938 -9.69921875 2.04296875 C-10.45847656 2.02878906 -11.21773437 2.01460937 -12 2 C-12 1.67 -12 1.34 -12 1 C-7.93631321 0.22596442 -4.13574827 -0.0984702 0 0 Z " fill="#478DFA" transform="translate(204,141)"/>
<path d="M0 0 C0.97505997 -0.00459229 1.95011993 -0.00918457 2.95472717 -0.01391602 C4.27832497 -0.01089478 4.27832497 -0.01089478 5.62866211 -0.0078125 C6.78512489 -0.00612061 6.78512489 -0.00612061 7.96495056 -0.00439453 C9.72265625 0.125 9.72265625 0.125 10.72265625 1.125 C10.79445589 2.64428038 10.80657632 4.16667482 10.78515625 5.6875 C10.77613281 6.51378906 10.76710938 7.34007812 10.7578125 8.19140625 C10.74621094 8.82949219 10.73460937 9.46757812 10.72265625 10.125 C-5.23320473 11.59461877 -21.27211654 11.21964518 -37.27734375 11.125 C-37.27734375 10.795 -37.27734375 10.465 -37.27734375 10.125 C-36.09313843 10.08741577 -36.09313843 10.08741577 -34.88500977 10.04907227 C-20.33711349 9.58204 -5.80059632 9.11283339 8.72265625 8.125 C8.22765625 5.155 8.22765625 5.155 7.72265625 2.125 C6.63364014 2.15529297 5.54462402 2.18558594 4.42260742 2.21679688 C-20.15001299 2.89137933 -44.6954995 3.27819462 -69.27734375 3.125 C-69.27734375 2.795 -69.27734375 2.465 -69.27734375 2.125 C-61.72345007 1.83403607 -54.16931442 1.55006868 -46.61499023 1.27050781 C-44.05601327 1.17503675 -41.49709115 1.07808161 -38.93823242 0.97949219 C-25.95973915 0.4804173 -12.98926639 0.03388488 0 0 Z " fill="#7EA5E2" transform="translate(173.27734375,204.875)"/>
<path d="M0 0 C0.12375 0.598125 0.2475 1.19625 0.375 1.8125 C0.95475985 4.26231348 0.95475985 4.26231348 3 7 C5.31 6.34 7.62 5.68 10 5 C9.0919838 6.13199353 8.17316174 7.25532363 7.25 8.375 C6.73953125 9.00148437 6.2290625 9.62796875 5.703125 10.2734375 C3.91800519 12.08312318 2.32050356 13.00117455 0 14 C0 12.35 0 10.7 0 9 C-0.37125 9.433125 -0.7425 9.86625 -1.125 10.3125 C-3.51281095 12.46152985 -6.1019568 13.64757984 -9 15 C-9 13.68 -9 12.36 -9 11 C-9.66 11 -10.32 11 -11 11 C-11 12.32 -11 13.64 -11 15 C-11 15.33 -11 15.66 -11 16 C-10.67 16.66 -10.34 17.32 -10 18 C-11.99954746 18.04254356 -14.00041636 18.04080783 -16 18 C-16.33 17.67 -16.66 17.34 -17 17 C-19.32817964 16.63239269 -21.6618385 16.29758419 -24 16 C-20.93381092 13.51784694 -17.82565262 11.89887608 -14.25 10.25 C-8.69558153 7.54085962 -4.36935539 4.3436533 0 0 Z " fill="#548FF1" transform="translate(216,173)"/>
<path d="M0 0 C1.56503461 1.43260861 2.9926051 2.92930841 4.4140625 4.50390625 C7.20427449 7.13605204 10.5232139 8.44144071 14 10 C10.65392213 11.08581335 9.91511697 10.97266479 6.3125 9.8125 C3 8 3 8 2.0625 5.8125 C2.041875 5.214375 2.02125 4.61625 2 4 C1.34 4 0.68 4 0 4 C0 3.34 0 2.68 0 2 C-11.94333264 -1.89986372 -24.11457497 -0.36720304 -36 3 C-36 3.66 -36 4.32 -36 5 C-38.97 5 -41.94 5 -45 5 C-45 4.01 -45 3.02 -45 2 C-53.91 1.67 -62.82 1.34 -72 1 C-72 0.67 -72 0.34 -72 0 C-62.76 0 -53.52 0 -44 0 C-43.67 1.32 -43.34 2.64 -43 4 C-41.96359375 3.57847656 -40.9271875 3.15695313 -39.859375 2.72265625 C-38.48963909 2.16913284 -37.11984432 1.61575506 -35.75 1.0625 C-35.06808594 0.78470703 -34.38617188 0.50691406 -33.68359375 0.22070312 C-23.38989936 -3.92675626 -10.06615812 -5.59231007 0 0 Z " fill="#6D9BE4" transform="translate(248,60)"/>
<path d="M0 0 C0.33 0 0.66 0 1 0 C1.0272415 1.41655793 1.04650467 2.83327045 1.0625 4.25 C1.07410156 5.03890625 1.08570313 5.8278125 1.09765625 6.640625 C1.00385306 8.90691002 0.63241063 10.8288895 0 13 C1.670625 12.9690625 1.670625 12.9690625 3.375 12.9375 C7 13 7 13 9 14 C9 14.66 9 15.32 9 16 C9.66 16 10.32 16 11 16 C10.6875 17.875 10.6875 17.875 10 20 C7 22 7 22 4 22 C4 22.99 4 23.98 4 25 C37.66 25 71.32 25 106 25 C106 25.33 106 25.66 106 26 C72.01 26 38.02 26 3 26 C3 23.69 3 21.38 3 19 C4.98 19 6.96 19 9 19 C7.96287824 16.91738855 7.96287824 16.91738855 6 15 C2.39534252 14.18685089 2.39534252 14.18685089 -1 14 C-0.67 9.38 -0.34 4.76 0 0 Z " fill="#81A7E9" transform="translate(141,176)"/>
<path d="M0 0 C2.23017924 2.23017924 2.67818505 3.67469476 3.6875 6.625 C6.41741798 13.62167867 11.09443839 19.88995028 17.91015625 23.3828125 C24.2762418 25.2628901 31.01768373 24.7391558 37 22 C36 25 36 25 34.3203125 25.984375 C27.93981523 28.2096018 22.63563832 28.02945417 16 27 C16 26.34 16 25.68 16 25 C15.34 25 14.68 25 14 25 C13 24 12 23 11 22 C10.01 21.67 9.02 21.34 8 21 C6.64631404 19.68733482 5.31200404 18.35432675 4 17 C3.34 16.67 2.68 16.34 2 16 C-1.19430158 10.32124164 -1.19137147 6.33005806 0 0 Z " fill="#5089EB" transform="translate(57,132)"/>
<path d="M0 0 C3.58882157 4.78509543 5.11287746 7.74245086 4.8125 13.75 C4 17 4 17 1 19 C1 18.01 1 17.02 1 16 C1.66 16 2.32 16 3 16 C3 14.68 3 13.36 3 12 C2.01 12.33 1.02 12.66 0 13 C-0.73323796 15.01508358 -0.73323796 15.01508358 -1 17 C-2.65 16.67 -4.3 16.34 -6 16 C-5.67 15.34 -5.34 14.68 -5 14 C-6.11375 14.66 -7.2275 15.32 -8.375 16 C-11.75 18 -11.75 18 -14 18 C-14.38229016 14.6549611 -14.11305534 13.19132443 -12.375 10.25 C-9.55981301 7.58298075 -7.80909391 7.25971095 -4 7 C-4 8.32 -4 9.64 -4 11 C-2.68 10.67 -1.36 10.34 0 10 C0 6.7 0 3.4 0 0 Z " fill="#6297EB" transform="translate(232,86)"/>
<path d="M0 0 C0.33 0.66 0.66 1.32 1 2 C1.495 1.835 1.99 1.67 2.5 1.5 C6.03444089 0.79311182 9.39690701 0.93994845 13 1 C14.06652192 3.30368736 15.06421005 5.64018187 16 8 C15.67 8.66 15.34 9.32 15 10 C14.34 10 13.68 10 13 10 C12.90501221 10.77714355 12.81002441 11.55428711 12.7121582 12.35498047 C12.26951164 15.86515461 11.79150864 19.36961107 11.3125 22.875 C11.16361328 24.09832031 11.01472656 25.32164063 10.86132812 26.58203125 C10.69697266 27.74863281 10.53261719 28.91523437 10.36328125 30.1171875 C10.15119019 31.73536377 10.15119019 31.73536377 9.93481445 33.38623047 C9 36 9 36 6.62182617 37.35986328 C3.66385835 38.08207127 1.03392552 38.14111281 -2 38 C-2 37.67 -2 37.34 -2 37 C-0.3603125 36.8453125 -0.3603125 36.8453125 1.3125 36.6875 C3.30035291 36.1967932 3.30035291 36.1967932 5 35 C6.76759076 31.52530638 7.31281741 27.8142983 8 24 C8.26679574 22.61821205 8.53509878 21.23671451 8.8046875 19.85546875 C9.34097505 17.07497551 9.8551763 14.29178163 10.3515625 11.50390625 C10.8175815 8.98571925 11.3788796 6.48448162 12 4 C8.04 4 4.08 4 0 4 C0 2.68 0 1.36 0 0 Z " fill="#6A96E2" transform="translate(149,80)"/>
<path d="M0 0 C0.33 0 0.66 0 1 0 C1.125 5.75 1.125 5.75 0 8 C-0.38923527 10.36950521 -0.7380578 12.7457572 -1.0625 15.125 C-1.371875 17.39375 -1.68125 19.6625 -2 22 C10.375 21.505 10.375 21.505 23 21 C23 21.66 23 22.32 23 23 C20.50072231 23.33970765 18.00080405 23.67188032 15.5 24 C14.80390625 24.09539062 14.1078125 24.19078125 13.390625 24.2890625 C0.5401124 25.95486969 0.5401124 25.95486969 -4.125 23.0625 C-6.17424686 19.71539679 -6.23215066 19.25472997 -5.5 15.625 C-4.32579093 11.59243056 -2.72458444 7.82407854 -1 4 C-0.62691369 2.67723944 -0.26953585 1.34767923 0 0 Z " fill="#6598EA" transform="translate(169,168)"/>
<path d="M0 0 C5.28492062 2.94972314 8.85683228 6.22077423 11 12 C12.25501075 21.27050397 10.9956677 30.71190768 5.8125 38.625 C5.214375 39.40875 4.61625 40.1925 4 41 C3.375 39.1875 3.375 39.1875 3 37 C3.66 36.01 4.32 35.02 5 34 C5.41782387 31.78757151 5.41782387 31.78757151 5.5625 29.4375 C5.90410959 25.19178082 5.90410959 25.19178082 7 23 C7.66 23 8.32 23 9 23 C8.69075786 20.89535207 8.3774944 18.7912947 8.0625 16.6875 C7.88847656 15.51574219 7.71445313 14.34398438 7.53515625 13.13671875 C7.07906969 9.98358597 7.07906969 9.98358597 6 7 C5.01 6.67 4.02 6.34 3 6 C3 5.34 3 4.68 3 4 C2.34 4 1.68 4 1 4 C0.67 2.68 0.34 1.36 0 0 Z " fill="#4F8CED" transform="translate(124,65)"/>
<path d="M0 0 C1.32 0.33 2.64 0.66 4 1 C-9.46749052 10.30932524 -23.83263136 12.85264461 -39.796875 10.421875 C-49.15437276 8.46719769 -49.15437276 8.46719769 -52 5 C-49.36 5.33 -46.72 5.66 -44 6 C-44 6.66 -44 7.32 -44 8 C-39.95839444 8.05831395 -35.91689795 8.09370212 -31.875 8.125 C-30.73289062 8.14175781 -29.59078125 8.15851563 -28.4140625 8.17578125 C-26.75117187 8.18544922 -26.75117187 8.18544922 -25.0546875 8.1953125 C-24.03874512 8.20578613 -23.02280273 8.21625977 -21.97607422 8.22705078 C-18.71246411 7.9780633 -16.07322864 7.09226306 -13 6 C-10.125 5.875 -10.125 5.875 -8 6 C-8 5.34 -8 4.68 -8 4 C-5.36 3.34 -2.72 2.68 0 2 C0 1.34 0 0.68 0 0 Z " fill="#729FE7" transform="translate(108,169)"/>
<path d="M0 0 C1.11375 0.1546875 1.11375 0.1546875 2.25 0.3125 C-0.41666667 2.97916667 -3.08333333 5.64583333 -5.75 8.3125 C7.12 8.3125 19.99 8.3125 33.25 8.3125 C32.92 8.9725 32.59 9.6325 32.25 10.3125 C19.38 10.3125 6.51 10.3125 -6.75 10.3125 C-6.75 5.3125 -6.75 5.3125 -5.0625 2.5 C-2.75 0.3125 -2.75 0.3125 0 0 Z " fill="#749DE4" transform="translate(213.75,186.6875)"/>
<path d="M0 0 C16.83 0 33.66 0 51 0 C51 0.33 51 0.66 51 1 C50.10796875 1.04898438 49.2159375 1.09796875 48.296875 1.1484375 C47.12640625 1.22320312 45.9559375 1.29796875 44.75 1.375 C43.00976562 1.47941406 43.00976562 1.47941406 41.234375 1.5859375 C38.29305666 1.96248308 36.50050989 2.4774123 34 4 C33.505 3.01 33.505 3.01 33 2 C16.97356017 1.84542599 16.97356017 1.84542599 1 3 C1 4.65 1 6.3 1 8 C0.67 8 0.34 8 0 8 C0 5.36 0 2.72 0 0 Z " fill="#4A8DF0" transform="translate(9,211)"/>
<path d="M0 0 C0.66 0 1.32 0 2 0 C1.95875 0.94875 1.9175 1.8975 1.875 2.875 C1.65026182 6.10244856 1.65026182 6.10244856 4 8 C4.99 6.68 5.98 5.36 7 4 C6.7471977 7.14754745 6.4693796 10.29243394 6.1875 13.4375 C6.11724609 14.31599609 6.04699219 15.19449219 5.97460938 16.09960938 C5.25098442 23.94370386 3.03579793 30.76078954 0 38 C-0.66 38 -1.32 38 -2 38 C-2.99 40.475 -2.99 40.475 -4 43 C-4.99 43 -5.98 43 -7 43 C-6.36771484 42.07767578 -6.36771484 42.07767578 -5.72265625 41.13671875 C-5.17480469 40.32847656 -4.62695312 39.52023438 -4.0625 38.6875 C-3.51722656 37.88699219 -2.97195312 37.08648437 -2.41015625 36.26171875 C-0.86162674 33.9741857 -0.86162674 33.9741857 0 31 C0.66 31 1.32 31 2 31 C2.25112548 28.47966841 2.47626233 25.96123432 2.6875 23.4375 C2.76033203 22.73302734 2.83316406 22.02855469 2.90820312 21.30273438 C3.32336992 16.00325229 2.4991436 12.707413 0 8 C-0.66 7.34 -1.32 6.68 -2 6 C-2 4.68 -2 3.36 -2 2 C-1.34 2 -0.68 2 0 2 C0 1.34 0 0.68 0 0 Z " fill="#5F94E9" transform="translate(224,129)"/>
<path d="M0 0 C4.03357119 4.85586574 3.53453077 10.00624518 3 16 C2 19.6875 2 19.6875 1 22 C-0.32 21.67 -1.64 21.34 -3 21 C-2.34 20.236875 -1.68 19.47375 -1 18.6875 C2.05847901 14.2182437 1.33250667 9.19079851 1 4 C-2.22914752 3.97082772 -5.45826083 3.95314337 -8.6875 3.9375 C-9.59951172 3.92912109 -10.51152344 3.92074219 -11.45117188 3.91210938 C-12.78051758 3.90727539 -12.78051758 3.90727539 -14.13671875 3.90234375 C-14.94842529 3.89710693 -15.76013184 3.89187012 -16.59643555 3.88647461 C-19.14864673 4.0070209 -21.51026137 4.440051 -24 5 C-24 4.34 -24 3.68 -24 3 C-7.74425109 -1.84213797 -7.74425109 -1.84213797 0 0 Z " fill="#6796EA" transform="translate(105,81)"/>
<path d="M0 0 C-0.2475 0.94875 -0.495 1.8975 -0.75 2.875 C-1.64770229 9.02176709 1.6787197 14.66235025 4.625 19.875 C6.75139907 24.70772516 7.28413887 29.79526847 8 35 C4.49692163 32.26843293 3.4310915 28.41262322 2 24.375 C1.73944824 23.65586426 1.47889648 22.93672852 1.21044922 22.19580078 C0.69710253 20.77262012 0.18770574 19.34800739 -0.31738281 17.921875 C-0.8832919 16.3285859 -1.46673731 14.74153793 -2.0546875 13.15625 C-3.56532623 8.95523562 -4.34896178 5.53650313 -4 1 C-2 0 -2 0 0 0 Z " fill="#789DDE" transform="translate(32,121)"/>
<path d="M0 0 C0.93423645 3.01031744 1.04449911 3.86650268 0 7 C-0.39741243 12.26571469 0.3332578 15.4443154 3 20 C4.41702513 19.85769192 5.8336096 19.71099254 7.25 19.5625 C8.03890625 19.48128906 8.8278125 19.40007812 9.640625 19.31640625 C11.82364639 19.02365007 13.8773182 18.57935581 16 18 C15.236875 18.598125 14.47375 19.19625 13.6875 19.8125 C11.06411004 21.80259899 11.06411004 21.80259899 9.5 23.8125 C8 25 8 25 5.61328125 24.83203125 C1.54854312 23.53787696 0.32818998 20.92024937 -1.828125 17.40234375 C-3.84301455 13.27182017 -3.65953116 10.10900926 -2.30859375 5.7890625 C-1.59945881 3.83637209 -0.8061759 1.91466776 0 0 Z " fill="#719CE2" transform="translate(208,96)"/>
<path d="M0 0 C1.32 0 2.64 0 4 0 C4 0.66 4 1.32 4 2 C3.34 2 2.68 2 2 2 C2 2.763125 2 3.52625 2 4.3125 C1.67 5.199375 1.34 6.08625 1 7 C-0.9455874 7.72547327 -2.89562427 8.44238908 -4.87109375 9.08203125 C-10.5812797 11.54422152 -13.14654071 16.93647811 -15.375 22.4375 C-15.9307036 23.95326064 -16.47750606 25.4724736 -17 27 C-17.33 27 -17.66 27 -18 27 C-18 24.36 -18 21.72 -18 19 C-17.34 19 -16.68 19 -16 19 C-15.7834375 18.13375 -15.7834375 18.13375 -15.5625 17.25 C-15.04166667 15.16666667 -14.52083333 13.08333333 -14 11 C-12.68 11 -11.36 11 -10 11 C-9.67 10.01 -9.34 9.02 -9 8 C-5.5647952 5.70986347 -4.014669 5.82157027 0 6 C0 4.02 0 2.04 0 0 Z " fill="#6C9AE6" transform="translate(204,74)"/>
<path d="M0 0 C-2.61167103 2.61167103 -4.9721059 3.07131482 -8.5 4.125 C-10.24796875 4.65480469 -10.24796875 4.65480469 -12.03125 5.1953125 C-15 6 -15 6 -17 6 C-16.67 11.61 -16.34 17.22 -16 23 C-14.68 23.33 -13.36 23.66 -12 24 C-13.65 24.33 -15.3 24.66 -17 25 C-19.29612756 11.3667426 -19.29612756 11.3667426 -19 5 C-17.06305322 4.18618205 -15.12542289 3.37399084 -13.1875 2.5625 C-12.10855469 2.11003906 -11.02960938 1.65757813 -9.91796875 1.19140625 C-3.97706835 -1.23426259 -3.97706835 -1.23426259 0 0 Z " fill="#7599D9" transform="translate(87,65)"/>
<path d="M0 0 C3.87264408 6.49604814 5.82558891 11.2244535 5 19 C3.27714629 23.71517858 1.08527604 26.12926548 -3 29 C-3.66 28.67 -4.32 28.34 -5 28 C-2.65625 26.19335938 -2.65625 26.19335938 -0.3125 24.38671875 C1.34370205 22.95508863 1.34370205 22.95508863 1 20 C1.66 20 2.32 20 3 20 C2.91227545 18.10333474 2.80408699 16.20761007 2.6875 14.3125 C2.62949219 13.25675781 2.57148438 12.20101562 2.51171875 11.11328125 C1.94154057 7.64433462 1.26461055 5.69410565 -1 3 C-3.71655372 2.183093 -3.71655372 2.183093 -6.6875 2.1875 C-7.68136719 2.13980469 -8.67523438 2.09210938 -9.69921875 2.04296875 C-10.45847656 2.02878906 -11.21773437 2.01460937 -12 2 C-12 1.67 -12 1.34 -12 1 C-7.93631321 0.22596442 -4.13574827 -0.0984702 0 0 Z " fill="#6F99DF" transform="translate(204,141)"/>
<path d="M0 0 C1 6 2 12 3 18 C2.34 18 1.68 18 1 18 C0.49622232 15.73000175 -0.00290019 13.45896997 -0.5 11.1875 C-0.7784375 9.92292969 -1.056875 8.65835938 -1.34375 7.35546875 C-2 4 -2 4 -2 1 C-2.69867188 1.28875 -3.39734375 1.5775 -4.1171875 1.875 C-5.02726562 2.24625 -5.93734375 2.6175 -6.875 3 C-7.77992187 3.37125 -8.68484375 3.7425 -9.6171875 4.125 C-12 5 -12 5 -14 5 C-14.33 5.99 -14.66 6.98 -15 8 C-17.31 7.67 -19.62 7.34 -22 7 C-18.67543639 4.78362426 -15.24208576 3.31185182 -11.5625 1.8125 C-10.89412109 1.52697266 -10.22574219 1.24144531 -9.53710938 0.94726562 C-3.45676681 -1.5294646 -3.45676681 -1.5294646 0 0 Z " fill="#6B97DF" transform="translate(54,114)"/>
<path d="M0 0 C0 1.65 0 3.3 0 5 C-1.98 5.33 -3.96 5.66 -6 6 C-6 7.32 -6 8.64 -6 10 C-6.66 10 -7.32 10 -8 10 C-8.66 9.34 -9.32 8.68 -10 8 C-10.99 8.33 -11.98 8.66 -13 9 C-13 10.65 -13 12.3 -13 14 C-13.33 14 -13.66 14 -14 14 C-14.36516955 10.16571972 -14.11001082 8.21187268 -12.3125 4.75 C-8.6884191 0.44028218 -5.51114305 -0.31492246 0 0 Z " fill="#4389F4" transform="translate(226,86)"/>
<path d="M0 0 C0.96228516 -0.01224609 1.92457031 -0.02449219 2.91601562 -0.03710938 C3.83447266 -0.03904297 4.75292969 -0.04097656 5.69921875 -0.04296875 C6.95545044 -0.04913208 6.95545044 -0.04913208 8.23706055 -0.05541992 C10.3125 0.1875 10.3125 0.1875 12.3125 2.1875 C12.3125 3.5075 12.3125 4.8275 12.3125 6.1875 C12.9725 6.1875 13.6325 6.1875 14.3125 6.1875 C14.6425 6.8475 14.9725 7.5075 15.3125 8.1875 C17.43096285 8.87479254 17.43096285 8.87479254 19.875 9.3125 C21.11443359 9.56386719 21.11443359 9.56386719 22.37890625 9.8203125 C23.01699219 9.94148438 23.65507812 10.06265625 24.3125 10.1875 C23.6525 10.8475 22.9925 11.5075 22.3125 12.1875 C20.85182801 11.73667531 19.39401968 11.27656463 17.9375 10.8125 C17.12539062 10.55726562 16.31328125 10.30203125 15.4765625 10.0390625 C13.3125 9.1875 13.3125 9.1875 11.3125 7.1875 C11.3125 5.8675 11.3125 4.5475 11.3125 3.1875 C7.64898419 1.96632806 4.25197028 2.00343646 0.4375 2 C-0.27019531 1.98775391 -0.97789062 1.97550781 -1.70703125 1.96289062 C-5.8663211 1.9512725 -8.91696021 2.47791834 -12.6875 4.1875 C-13.6775 4.1875 -14.6675 4.1875 -15.6875 4.1875 C-15.6875 3.1975 -15.6875 2.2075 -15.6875 1.1875 C-10.42226998 0.00889263 -5.37367955 0.00364317 0 0 Z " fill="#769FE4" transform="translate(231.6875,66.8125)"/>
<path d="M0 0 C1.32 0.66 2.64 1.32 4 2 C4.99 1.34 5.98 0.68 7 0 C9.6875 -0.125 9.6875 -0.125 12 0 C11.67 0.66 11.34 1.32 11 2 C10.34 2 9.68 2 9 2 C8.67 2.99 8.34 3.98 8 5 C7.34 5 6.68 5 6 5 C6 5.66 6 6.32 6 7 C4.7934375 7.309375 4.7934375 7.309375 3.5625 7.625 C2.716875 8.07875 1.87125 8.5325 1 9 C0.10169161 12.05272465 0.10169161 12.05272465 0 15 C-0.33 15 -0.66 15 -1 15 C-0.67 10.05 -0.34 5.1 0 0 Z " fill="#588FED" transform="translate(176,129)"/>
<path d="M0 0 C0.33 0 0.66 0 1 0 C1.02715383 1.74991334 1.04646551 3.49994945 1.0625 5.25 C1.07410156 6.22453125 1.08570312 7.1990625 1.09765625 8.203125 C1.01195577 10.65758678 0.70706066 12.66168914 0 15 C1.19625 14.67 2.3925 14.34 3.625 14 C7.15791497 13.10734177 10.34079109 12.81703955 14 13 C14 13.66 14 14.32 14 15 C14.99 15.33 15.98 15.66 17 16 C16.67 17.32 16.34 18.64 16 20 C15.67 19.01 15.34 18.02 15 17 C9.39 17 3.78 17 -2 17 C-1.37946171 11.32650709 -0.72057218 5.66163857 0 0 Z " fill="#799FDF" transform="translate(82,112)"/>
<path d="M0 0 C0.66 0 1.32 0 2 0 C2.01417969 0.7734375 2.02835938 1.546875 2.04296875 2.34375 C2.34128657 8.85836617 3.115014 13.00817369 6.90625 18.3203125 C8 20 8 20 8.5625 22.8125 C7.81700235 25.71165754 6.52117054 26.50305499 4 28 C4.04640625 27.43152344 4.0928125 26.86304687 4.140625 26.27734375 C4.38438627 21.06259378 3.87387612 18.47192156 0.890625 14.0390625 C-1.00777339 9.69272934 -0.27462055 4.64566433 0 0 Z " fill="#6194E5" transform="translate(184,101)"/>
<path d="M0 0 C0.66 0.33 1.32 0.66 2 1 C-1.70192476 5.02331373 -5.13100567 8.15828082 -9.9375 10.8125 C-12.27338315 12.14517597 -12.27338315 12.14517597 -14 14 C-14.75845239 17.45459481 -14.55630498 20.52481085 -14 24 C-16.76477453 21.23522547 -16.52458441 18.8033247 -17 15 C-17.33 14.34 -17.66 13.68 -18 13 C-16.35 12.67 -14.7 12.34 -13 12 C-12.67 10.68 -12.34 9.36 -12 8 C-11.01 8 -10.02 8 -9 8 C-8.67 7.34 -8.34 6.68 -8 6 C-7.01 6 -6.02 6 -5 6 C-4.9175 5.38125 -4.835 4.7625 -4.75 4.125 C-4 2 -4 2 -2.0625 0.6875 C-1.381875 0.460625 -0.70125 0.23375 0 0 Z " fill="#6D99E7" transform="translate(251,116)"/>
<path d="M0 0 C1.18613892 0.00785522 1.18613892 0.00785522 2.39624023 0.01586914 C3.67724609 0.02070312 3.67724609 0.02070312 4.98413086 0.02563477 C5.88196289 0.03401367 6.77979492 0.04239258 7.70483398 0.05102539 C8.6065332 0.05553711 9.50823242 0.06004883 10.43725586 0.06469727 C12.67234712 0.07652315 14.90730835 0.09300319 17.14233398 0.11352539 C17.14233398 0.44352539 17.14233398 0.77352539 17.14233398 1.11352539 C11.20233398 1.11352539 5.26233398 1.11352539 -0.85766602 1.11352539 C-1.51766602 6.06352539 -2.17766602 11.01352539 -2.85766602 16.11352539 C-3.51766602 16.11352539 -4.17766602 16.11352539 -4.85766602 16.11352539 C-5.18766602 17.10352539 -5.51766602 18.09352539 -5.85766602 19.11352539 C-4.56342269 0.27887916 -4.56342269 0.27887916 0 0 Z " fill="#6F9BE0" transform="translate(155.857666015625,60.886474609375)"/>
<path d="M0 0 C2.21227968 2.21227968 2.95767096 3.92876494 4.125 6.8125 C4.47820313 7.66457031 4.83140625 8.51664063 5.1953125 9.39453125 C6.02476723 12.08019292 6.15038245 14.20789919 6 17 C6.66 17 7.32 17 8 17 C7.67 17.66 7.34 18.32 7 19 C2.99288757 17.15889429 1.02264789 15.21690819 -0.57421875 11.05078125 C-1.35038155 7.31238246 -0.69877409 3.71276355 0 0 Z " fill="#548EEC" transform="translate(57,132)"/>
<path d="M0 0 C0.8353125 0.37125 0.8353125 0.37125 1.6875 0.75 C1.8125 3.125 1.8125 3.125 1.6875 5.75 C-0.3125 7.75 -0.3125 7.75 -3.4375 7.875 C-4.860625 7.813125 -4.860625 7.813125 -6.3125 7.75 C-6.6425 6.43 -6.9725 5.11 -7.3125 3.75 C-2.88173077 -0.31153846 -2.88173077 -0.31153846 0 0 Z " fill="#EFF5FD" transform="translate(196.3125,152.25)"/>
<path d="M0 0 C0.33 0 0.66 0 1 0 C1.72379935 16.74791263 1.72379935 16.74791263 -3 23 C-3.309375 23.94875 -3.61875 24.8975 -3.9375 25.875 C-4.288125 26.57625 -4.63875 27.2775 -5 28 C-7.56640625 28.6328125 -7.56640625 28.6328125 -10 29 C-9.27683594 27.91332031 -9.27683594 27.91332031 -8.5390625 26.8046875 C-7.90742188 25.83789062 -7.27578125 24.87109375 -6.625 23.875 C-5.99851563 22.92367187 -5.37203125 21.97234375 -4.7265625 20.9921875 C-1.81805702 15.95165537 -0.75991522 11.39872824 -0.375 5.625 C-0.30023438 4.56539063 -0.22546875 3.50578125 -0.1484375 2.4140625 C-0.09945312 1.61742188 -0.05046875 0.82078125 0 0 Z " fill="#7EA4E6" transform="translate(256,80)"/>
<path d="M0 0 C0 0.33 0 0.66 0 1 C-1.08539063 1.06058594 -2.17078125 1.12117188 -3.2890625 1.18359375 C-4.73438486 1.26806064 -6.17969682 1.35270551 -7.625 1.4375 C-8.33785156 1.47681641 -9.05070312 1.51613281 -9.78515625 1.55664062 C-12.86050872 1.7400332 -15.78624216 1.95724843 -18.8125 2.5625 C-23.68577178 3.23138044 -28.47587313 2.83748325 -33.375 2.5625 C-34.39722656 2.51029297 -35.41945312 2.45808594 -36.47265625 2.40429688 C-38.98213196 2.27530513 -41.4911394 2.14037142 -44 2 C-44 1.67 -44 1.34 -44 1 C-29.32836185 -0.06151387 -14.70520624 -0.11106651 0 0 Z " fill="#538AE9" transform="translate(199,61)"/>
<path d="M0 0 C1.32 0 2.64 0 4 0 C4 1.32 4 2.64 4 4 C3.34 4 2.68 4 2 4 C1.9175 4.94875 1.835 5.8975 1.75 6.875 C1.5025 7.90625 1.255 8.9375 1 10 C-0.9375 11.125 -0.9375 11.125 -3 12 C-4.26804566 14.0335948 -4.26804566 14.0335948 -5 16 C-5.66 15.67 -6.32 15.34 -7 15 C-5.75023244 11.34683329 -5.32901247 10.21934164 -2 8 C-2.33 6.68 -2.66 5.36 -3 4 C-2.01 4.33 -1.02 4.66 0 5 C0 3.35 0 1.7 0 0 Z " fill="#498DF0" transform="translate(231,98)"/>
<path d="M0 0 C0.33 0 0.66 0 1 0 C1.0272415 1.41655793 1.04650467 2.83327045 1.0625 4.25 C1.07410156 5.03890625 1.08570313 5.8278125 1.09765625 6.640625 C1.00385306 8.90691002 0.63241063 10.8288895 0 13 C1.670625 12.9690625 1.670625 12.9690625 3.375 12.9375 C7 13 7 13 9 14 C9 14.66 9 15.32 9 16 C9.66 16 10.32 16 11 16 C10.9375 17.8125 10.9375 17.8125 10 20 C6.4375 21.75 6.4375 21.75 3 23 C3 21.68 3 20.36 3 19 C4.98 19 6.96 19 9 19 C7.96287824 16.91738855 7.96287824 16.91738855 6 15 C2.39534252 14.18685089 2.39534252 14.18685089 -1 14 C-0.67 9.38 -0.34 4.76 0 0 Z " fill="#6D94D8" transform="translate(141,176)"/>
<path d="M0 0 C0.66 0.33 1.32 0.66 2 1 C0.50260417 2.23697917 -0.99479167 3.47395833 -2.4921875 4.7109375 C-3.71051161 5.75250992 -4.86660097 6.86660097 -6 8 C-6.680625 8.20625 -7.36125 8.4125 -8.0625 8.625 C-10.17041938 9.80566159 -10.17041938 9.80566159 -10.48046875 11.90625 C-10.72631056 13.92999126 -10.86874907 15.96561064 -11 18 C-11.66 17.67 -12.32 17.34 -13 17 C-13.0795588 12.54470729 -13.0001901 10.15926606 -10.03515625 6.72265625 C-4.03520873 1.34506958 -4.03520873 1.34506958 0 0 Z " fill="#78A3E7" transform="translate(190,143)"/>
<path d="M0 0 C2.97 0.33 5.94 0.66 9 1 C8.0625 3 8.0625 3 6 5 C1.0517006 5.81994942 -3.51845481 5.31305558 -8 3 C-8 2.67 -8 2.34 -8 2 C-5.36 2 -2.72 2 0 2 C0 1.34 0 0.68 0 0 Z " fill="#5892EA" transform="translate(192,166)"/>
<path d="M0 0 C0.33 0 0.66 0 1 0 C1.22151549 1.79008467 1.42682213 3.58218162 1.625 5.375 C1.74101562 6.37273437 1.85703125 7.37046875 1.9765625 8.3984375 C1.98429688 9.25695312 1.99203125 10.11546875 2 11 C1.34 11.66 0.68 12.32 0 13 C-0.71927295 15.31765729 -1.3909893 17.65095874 -2 20 C-2.66 20 -3.32 20 -4 20 C-3.42978625 13.04339229 -1.98697306 6.68572695 0 0 Z " fill="#699AE7" transform="translate(146,154)"/>
<path d="M0 0 C0.33 0 0.66 0 1 0 C0.4533512 8.18088206 -1.17123868 16.01785939 -3 24 C-3.33 24 -3.66 24 -4 24 C-4.19448477 21.87562788 -4.38038289 19.75046809 -4.5625 17.625 C-4.66691406 16.44164062 -4.77132812 15.25828125 -4.87890625 14.0390625 C-5 11 -5 11 -4 9 C-3.34 9 -2.68 9 -2 9 C-1.7834375 7.88625 -1.7834375 7.88625 -1.5625 6.75 C-1.09812508 4.47972261 -0.58136431 2.24240521 0 0 Z " fill="#6B9BEA" transform="translate(174,144)"/>
<path d="M0 0 C5.75 -0.125 5.75 -0.125 8 1 C8 3.97 8 6.94 8 10 C6.37509046 10.02698189 4.75005367 10.04638757 3.125 10.0625 C1.76761719 10.07990234 1.76761719 10.07990234 0.3828125 10.09765625 C-2 10 -2 10 -4 9 C-3.67 6.36 -3.34 3.72 -3 1 C-2.01 1.33 -1.02 1.66 0 2 C0 1.34 0 0.68 0 0 Z M0.25 2.9375 C-0.86375 3.9584375 -0.86375 3.9584375 -2 5 C-1.67 6.32 -1.34 7.64 -1 9 C1.91652174 9.16681109 1.91652174 9.16681109 5 9 C7.28728734 7.16116119 7.28728734 7.16116119 7.125 4.375 C7.08375 3.59125 7.0425 2.8075 7 2 C3.79207028 0.57425346 3.22059746 0.84457906 0.25 2.9375 Z " fill="#6497E9" transform="translate(191,151)"/>
<path d="M0 0 C0.99 0.33 1.98 0.66 3 1 C1.32598022 4.95677402 -1.13149285 7.84464213 -4 11 C-4.66 11 -5.32 11 -6 11 C-6.40060526 7.49470398 -6.15413141 6.2260594 -4.125 3.25 C-2 1 -2 1 0 0 Z " fill="#DFEFFD" transform="translate(224,93)"/>
<path d="M0 0 C-2.31399023 2.31399023 -2.98604724 2.32256804 -6.1328125 2.6328125 C-6.93847656 2.71660156 -7.74414062 2.80039063 -8.57421875 2.88671875 C-9.41597656 2.96535156 -10.25773438 3.04398438 -11.125 3.125 C-11.97449219 3.21136719 -12.82398438 3.29773438 -13.69921875 3.38671875 C-15.79869727 3.59902557 -17.89926242 3.80053603 -20 4 C-20.33 5.98 -20.66 7.96 -21 10 C-21.33 10 -21.66 10 -22 10 C-22.09765625 3.84765625 -22.09765625 3.84765625 -22 2 C-19.98010652 -0.01989348 -16.03078088 0.5868201 -13.25 0.4375 C-12.53328125 0.39431641 -11.8165625 0.35113281 -11.078125 0.30664062 C-7.38124021 0.09257469 -3.70303071 -0.05102601 0 0 Z " fill="#6D99E2" transform="translate(146,138)"/>
<path d="M0 0 C5.25651633 2.93386958 8.91734246 6.22085071 11 12 C11.39540271 16.36945022 11.29998401 20.62689974 11 25 C10.67 25 10.34 25 10 25 C9.96261719 24.26394531 9.92523438 23.52789062 9.88671875 22.76953125 C9.41024006 15.42439383 9.41024006 15.42439383 6 9 C6 8.34 6 7.68 6 7 C5.01 6.67 4.02 6.34 3 6 C3 5.34 3 4.68 3 4 C2.34 4 1.68 4 1 4 C0.67 2.68 0.34 1.36 0 0 Z " fill="#7BA2E6" transform="translate(124,65)"/>
<path d="M0 0 C4.01259841 0.51976663 5.94236952 1.49070856 8.8125 4.3125 C12.61578427 7.83325458 16.27948644 9.89262787 21 12 C17.65392213 13.08581335 16.91511697 12.97266479 13.3125 11.8125 C10 10 10 10 9.0625 7.8125 C9.041875 7.214375 9.02125 6.61625 9 6 C8.34 6 7.68 6 7 6 C7 5.34 7 4.68 7 4 C5.35 3.67 3.7 3.34 2 3 C2 2.34 2 1.68 2 1 C1.34 0.67 0.68 0.34 0 0 Z " fill="#6D97DC" transform="translate(241,58)"/>
<path d="M0 0 C7.59 0 15.18 0 23 0 C23 0.33 23 0.66 23 1 C15.74 1.66 8.48 2.32 1 3 C1 4.65 1 6.3 1 8 C0.67 8 0.34 8 0 8 C0 5.36 0 2.72 0 0 Z " fill="#5B8FDC" transform="translate(9,211)"/>
<path d="M0 0 C0 0.66 0 1.32 0 2 C-2.97839513 4.80278221 -5.50693457 5.49754706 -9.5 6.0625 C-13.073954 6.57797414 -15.84872875 7.20882932 -19 9 C-18.67 7.68 -18.34 6.36 -18 5 C-17.01257813 4.72285156 -16.02515625 4.44570312 -15.0078125 4.16015625 C-13.71351203 3.79437568 -12.41924281 3.42848451 -11.125 3.0625 C-10.47402344 2.88009766 -9.82304688 2.69769531 -9.15234375 2.50976562 C-0.29971591 0 -0.29971591 0 0 0 Z " fill="#6696E1" transform="translate(102,103)"/>
<path d="M0 0 C0.66 0.33 1.32 0.66 2 1 C2.38999191 8.59762024 1.60758587 14.84466021 -1 22 C-2.32 21.67 -3.64 21.34 -5 21 C-4.360625 20.13375 -3.72125 19.2675 -3.0625 18.375 C0.20060892 12.80580704 -0.17439993 6.28711756 0 0 Z " fill="#6291D9" transform="translate(99,132)"/>
<path d="M0 0 C0 3 0 3 -2 6 C-1.9175 7.134375 -1.835 8.26875 -1.75 9.4375 C-1.8325 10.613125 -1.915 11.78875 -2 13 C-5 15.4375 -5 15.4375 -8 17 C-7.14108317 9.63997133 -5.40849473 5.13636921 0 0 Z " fill="#5890EA" transform="translate(215,88)"/>
<path d="M0 0 C4.47748373 3.86691777 5.25593341 8.66356719 6.125 14.3125 C6.29257812 15.38113281 6.46015625 16.44976562 6.6328125 17.55078125 C6.75398438 18.35902344 6.87515625 19.16726562 7 20 C1.27294827 14.7848635 0.49356383 7.35239919 0 0 Z " fill="#5D95E7" transform="translate(33,136)"/>
<path d="M0 0 C1 2 2 4 3 6 C2.01 6 1.02 6 0 6 C-0.33 6.99 -0.66 7.98 -1 9 C-2.32 9 -3.64 9 -5 9 C-5.33 7.68 -5.66 6.36 -6 5 C-5.01 5 -4.02 5 -3 5 C-3 3.68 -3 2.36 -3 1 C-2.01 0.67 -1.02 0.34 0 0 Z " fill="#428BF6" transform="translate(239,119)"/>
<path d="M0 0 C0.33 0 0.66 0 1 0 C1 2.31 1 4.62 1 7 C0.34 7 -0.32 7 -1 7 C-0.979375 8.27875 -0.95875 9.5575 -0.9375 10.875 C-0.875 14.75 -0.875 14.75 -2 17 C-0.329375 16.9690625 -0.329375 16.9690625 1.375 16.9375 C5 17 5 17 7 18 C6.67 18.99 6.34 19.98 6 21 C6 20.34 6 19.68 6 19 C3.03 18.67 0.06 18.34 -3 18 C-2.67 13.05 -2.34 8.1 -2 3 C-1.34 3 -0.68 3 0 3 C0 2.01 0 1.02 0 0 Z " fill="#568EEB" transform="translate(144,171)"/>
<path d="M0 0 C1.32 0.33 2.64 0.66 4 1 C2.85569823 4.87302138 1.76679902 8.00263439 -1 11 C-1.66 11 -2.32 11 -3 11 C-3.33 11.66 -3.66 12.32 -4 13 C-4 11.35 -4 9.7 -4 8 C-3.34 8 -2.68 8 -2 8 C-2 7.01 -2 6.02 -2 5 C-1.34 5 -0.68 5 0 5 C0 3.35 0 1.7 0 0 Z " fill="#6392E5" transform="translate(230,165)"/>
<path d="M0 0 C2.02489358 5.26472331 -0.98161248 10.09820173 -3 15 C-3.66 15 -4.32 15 -5 15 C-5.99 17.475 -5.99 17.475 -7 20 C-7.99 20 -8.98 20 -10 20 C-9.36771484 19.07767578 -9.36771484 19.07767578 -8.72265625 18.13671875 C-8.17480469 17.32847656 -7.62695312 16.52023438 -7.0625 15.6875 C-6.51722656 14.88699219 -5.97195312 14.08648437 -5.41015625 13.26171875 C-3.86162674 10.9741857 -3.86162674 10.9741857 -3 8 C-2.34 8 -1.68 8 -1 8 C-0.67 5.36 -0.34 2.72 0 0 Z " fill="#7CA2E3" transform="translate(227,152)"/>
<path d="M0 0 C1.134375 0.020625 2.26875 0.04125 3.4375 0.0625 C-0.85041815 2.20645908 -3.35596072 3.18475525 -8.2265625 3.16015625 C-9.34804687 3.15693359 -10.46953125 3.15371094 -11.625 3.15039062 C-12.800625 3.14201172 -13.97625 3.13363281 -15.1875 3.125 C-16.37085938 3.12048828 -17.55421875 3.11597656 -18.7734375 3.11132812 C-21.70317507 3.09951467 -24.63281272 3.08304258 -27.5625 3.0625 C-27.5625 2.7325 -27.5625 2.4025 -27.5625 2.0625 C-26.87099854 2.03744385 -26.17949707 2.0123877 -25.46704102 1.98657227 C-22.35282134 1.87097839 -19.23893211 1.74808758 -16.125 1.625 C-14.49208008 1.56602539 -14.49208008 1.56602539 -12.82617188 1.50585938 C-11.79169922 1.46396484 -10.75722656 1.42207031 -9.69140625 1.37890625 C-8.73306885 1.34224854 -7.77473145 1.30559082 -6.78735352 1.26782227 C-3.49602259 0.96407934 -3.83134621 0.0672166 0 0 Z " fill="#548BE5" transform="translate(148.5625,117.9375)"/>
<path d="M0 0 C9.24 0 18.48 0 28 0 C28.33 0.99 28.66 1.98 29 3 C28.25492188 2.84660156 27.50984375 2.69320312 26.7421875 2.53515625 C21.54745755 1.79227733 16.36512913 1.63432751 11.125 1.4375 C10.05507812 1.39431641 8.98515625 1.35113281 7.8828125 1.30664062 C5.25532246 1.20107183 2.62774578 1.09896209 0 1 C0 0.67 0 0.34 0 0 Z " fill="#7FA6ED" transform="translate(176,60)"/>
<path d="M0 0 C3.22265625 5.17578125 3.22265625 5.17578125 4 7 C3.67 7.99 3.34 8.98 3 10 C2.566875 8.865625 2.13375 7.73125 1.6875 6.5625 C0.69695355 4.55080713 0.69695355 4.55080713 -1 3 C-4.67092812 2.07038367 -8.22429112 1.9544311 -12 2 C-12 1.67 -12 1.34 -12 1 C-7.93631321 0.22596442 -4.13574827 -0.0984702 0 0 Z " fill="#82A8E7" transform="translate(204,141)"/>
<path d="M0 0 C1.2077558 3.62326739 0.54311128 4.64146369 -1 8 C-2.32 8 -3.64 8 -5 8 C-5.33 8.99 -5.66 9.98 -6 11 C-6.99 10.67 -7.98 10.34 -9 10 C-7.71937515 8.2925002 -6.38232443 6.62626404 -5 5 C-4.34 5 -3.68 5 -3 5 C-3 4.34 -3 3.68 -3 3 C-2.34 3 -1.68 3 -1 3 C-0.67 2.01 -0.34 1.02 0 0 Z " fill="#6B99E5" transform="translate(245,109)"/>
<path d="M0 0 C0.680625 0.721875 1.36125 1.44375 2.0625 2.1875 C5.09214518 5.23455693 8.46217304 7.57207954 12 10 C7.82412255 11.39195915 5.86525224 9.82323219 2 8 C2 6.68 2 5.36 2 4 C1.34 4 0.68 4 0 4 C0 2.68 0 1.36 0 0 Z " fill="#6F9BE7" transform="translate(63,145)"/>
<path d="M0 0 C1.32 0 2.64 0 4 0 C3.34 2.64 2.68 5.28 2 8 C3.32 7.34 4.64 6.68 6 6 C6 6.99 6 7.98 6 9 C4.02 9.33 2.04 9.66 0 10 C0 6.7 0 3.4 0 0 Z " fill="#6594E8" transform="translate(216,96)"/>
<path d="M0 0 C0.33 0 0.66 0 1 0 C1 2.31 1 4.62 1 7 C1.66 7 2.32 7 3 7 C2.01 10.3 1.02 13.6 0 17 C-0.66 17 -1.32 17 -2 17 C-1.855625 16.05125 -1.71125 15.1025 -1.5625 14.125 C-0.88802722 9.43259653 -0.44623104 4.71865588 0 0 Z " fill="#4C8BF1" transform="translate(108,87)"/>
<path d="M0 0 C15.30919139 -0.57329843 15.30919139 -0.57329843 21 3 C21.33 3.99 21.66 4.98 22 6 C21.34 6 20.68 6 20 6 C19.67 5.34 19.34 4.68 19 4 C12.84385029 1.67434344 6.52427991 1.40709793 0 1 C0 0.67 0 0.34 0 0 Z " fill="#5A90E5" transform="translate(103,62)"/>
<path d="M0 0 C0.99 0.33 1.98 0.66 3 1 C3 1.66 3 2.32 3 3 C0.23547967 4.38226016 -2.0461363 4.09525387 -5.125 4.0625 C-6.22070312 4.05347656 -7.31640625 4.04445312 -8.4453125 4.03515625 C-9.70988281 4.01775391 -9.70988281 4.01775391 -11 4 C-11 3.34 -11 2.68 -11 2 C-10.28972656 1.93941406 -9.57945312 1.87882813 -8.84765625 1.81640625 C-7.46900391 1.69072266 -7.46900391 1.69072266 -6.0625 1.5625 C-5.14597656 1.48128906 -4.22945312 1.40007812 -3.28515625 1.31640625 C-1.03840268 1.23955024 -1.03840268 1.23955024 0 0 Z " fill="#4F8AEF" transform="translate(179,210)"/>
<path d="M0 0 C2.475 0.495 2.475 0.495 5 1 C4.91284983 2.93833996 4.80467036 4.8757429 4.6875 6.8125 C4.62949219 7.89144531 4.57148438 8.97039062 4.51171875 10.08203125 C3.96931493 13.17497517 3.44710376 14.13022903 1 16 C1.96355353 6.58997722 1.96355353 6.58997722 3 2 C2.01 1.34 1.02 0.68 0 0 Z " fill="#6A95DC" transform="translate(146,137)"/>
<path d="M0 0 C-2.57146057 2.57146057 -4.6050417 2.80117997 -8.125 3.625 C-9.22070312 3.88539062 -10.31640625 4.14578125 -11.4453125 4.4140625 C-12.28835937 4.60742188 -13.13140625 4.80078125 -14 5 C-13 2 -13 2 -11.07421875 1.015625 C-9.89279297 0.63664062 -9.89279297 0.63664062 -8.6875 0.25 C-7.51767578 -0.14445312 -7.51767578 -0.14445312 -6.32421875 -0.546875 C-3.83078909 -1.03298902 -2.3818103 -0.80665429 0 0 Z " fill="#6993DE" transform="translate(87,65)"/>
<path d="M0 0 C0 0.66 0 1.32 0 2 C0.99 2.33 1.98 2.66 3 3 C2.67 4.32 2.34 5.64 2 7 C1.67 6.01 1.34 5.02 1 4 C0.36191406 3.95101562 -0.27617188 3.90203125 -0.93359375 3.8515625 C-1.75988281 3.77679688 -2.58617188 3.70203125 -3.4375 3.625 C-4.26121094 3.55539063 -5.08492188 3.48578125 -5.93359375 3.4140625 C-6.61550781 3.27742187 -7.29742187 3.14078125 -8 3 C-8.33 2.34 -8.66 1.68 -9 1 C-5.8035914 -0.06546953 -3.34252724 -0.07427838 0 0 Z " fill="#6999E8" transform="translate(96,125)"/>
<path d="M0 0 C0.99 0.33 1.98 0.66 3 1 C3 3.31 3 5.62 3 8 C1.35 8 -0.3 8 -2 8 C-1.125 2.25 -1.125 2.25 0 0 Z " fill="#4589F8" transform="translate(230,89)"/>
<path d="M0 0 C0.66 0 1.32 0 2 0 C2 1.32 2 2.64 2 4 C1.01 4 0.02 4 -1 4 C-1.33 4.99 -1.66 5.98 -2 7 C-5.0625 8.1875 -5.0625 8.1875 -8 9 C-7.04882866 7.8274869 -6.08882991 6.66212985 -5.125 5.5 C-4.32449219 4.52546875 -4.32449219 4.52546875 -3.5078125 3.53125 C-2.76144531 2.77328125 -2.76144531 2.77328125 -2 2 C-1.34 2 -0.68 2 0 2 C0 1.34 0 0.68 0 0 Z " fill="#709DE4" transform="translate(234,120)"/>
<path d="M0 0 C0.66 0 1.32 0 2 0 C1.61471495 6.16456078 -0.47086025 9.98627748 -4 15 C-4.625 13.1875 -4.625 13.1875 -5 11 C-4.34 10.01 -3.68 9.02 -3 8 C-2.34 8 -1.68 8 -1 8 C-0.67 5.36 -0.34 2.72 0 0 Z " fill="#739EE8" transform="translate(132,91)"/>
<path d="M0 0 C0.99 0 1.98 0 3 0 C3.33 0.99 3.66 1.98 4 3 C5.65 3.33 7.3 3.66 9 4 C7 6 7 6 3.375 6.125 C2.26125 6.08375 1.1475 6.0425 0 6 C0 4.02 0 2.04 0 0 Z " fill="#538EEB" transform="translate(71,82)"/>
<path d="M0 0 C0.33 0 0.66 0 1 0 C1.02698189 1.62490954 1.04638757 3.24994633 1.0625 4.875 C1.07410156 5.77992188 1.08570313 6.68484375 1.09765625 7.6171875 C1 10 1 10 0 12 C0.99 11.67 1.98 11.34 3 11 C3.33 11.66 3.66 12.32 4 13 C3.34 13 2.68 13 2 13 C1.67 13.66 1.34 14.32 1 15 C0.01 15.33 -0.98 15.66 -2 16 C-1.34 10.72 -0.68 5.44 0 0 Z " fill="#4F8EF0" transform="translate(229,144)"/>
<path d="M0 0 C-3.77802698 1.25934233 -7.34809446 1.31867699 -11.30859375 1.5234375 C-14.30683454 2.05433064 -15.74351757 3.00490678 -18 5 C-17.67 3.35 -17.34 1.7 -17 0 C-14.9174133 -0.19561869 -12.83388144 -0.38119313 -10.75 -0.5625 C-9.58984375 -0.66691406 -8.4296875 -0.77132812 -7.234375 -0.87890625 C-4.48128523 -0.98198087 -2.580018 -0.86213473 0 0 Z " fill="#D4E6FC" transform="translate(143,141)"/>
<path d="M0 0 C0.66 0 1.32 0 2 0 C1.979375 0.886875 1.95875 1.77375 1.9375 2.6875 C1.99286219 5.62169631 2.3305734 8.15493696 3 11 C0.5 8.75 0.5 8.75 -2 6 C-2 4.68 -2 3.36 -2 2 C-1.34 2 -0.68 2 0 2 C0 1.34 0 0.68 0 0 Z " fill="#779FE7" transform="translate(224,129)"/>
<path d="M0 0 C0.66 0 1.32 0 2 0 C2.3690205 11.52164009 2.3690205 11.52164009 0 17 C-1.32 16.67 -2.64 16.34 -4 16 C-3.34 15.21625 -2.68 14.4325 -2 13.625 C0.89251428 9.38807768 0.35098192 4.93324584 0 0 Z " fill="#6C98DE" transform="translate(106,86)"/>
<path d="M0 0 C0 0.33 0 0.66 0 1 C-1.60256108 1.50512244 -3.20711792 2.00391627 -4.8125 2.5 C-6.15248047 2.91765625 -6.15248047 2.91765625 -7.51953125 3.34375 C-10 4 -10 4 -13 4 C-13 3.01 -13 2.02 -13 1 C-8.59085217 -0.10228696 -4.51617599 -0.07654536 0 0 Z " fill="#6B9AE7" transform="translate(229,67)"/>
<path d="M0 0 C0.66 0 1.32 0 2 0 C2 2.97 2 5.94 2 9 C-1.3 9 -4.6 9 -8 9 C-7.67 8.34 -7.34 7.68 -7 7 C-5.5459375 7.0309375 -5.5459375 7.0309375 -4.0625 7.0625 C-1.12534105 7.35618499 -1.12534105 7.35618499 0 6 C0.04080783 4.00041636 0.04254356 1.99954746 0 0 Z " fill="#6F9EE8" transform="translate(197,152)"/>
<path d="M0 0 C4.3890815 0.51035831 7.33708062 1.52214277 11 4 C8.83032311 4.95465783 7.43671207 5.14401212 5.17578125 4.3984375 C3.4315257 3.64129615 1.71372869 2.82390802 0 2 C0 1.34 0 0.68 0 0 Z " fill="#5B90E4" transform="translate(251,66)"/>
<path d="M0 0 C1.65 0 3.3 0 5 0 C1.24532309 3.05936637 -2.08113061 5 -7 5 C-7 4.01 -7 3.02 -7 2 C-4.69 2 -2.38 2 0 2 C0 1.34 0 0.68 0 0 Z " fill="#D9ECFD" transform="translate(212,59)"/>
<path d="M0 0 C1.1446875 0.12375 1.1446875 0.12375 2.3125 0.25 C-0.54026137 3.18200474 -3.33829784 5.89315404 -6.6875 8.25 C-5.9168107 3.93413993 -4.72992724 0.43999323 0 0 Z " fill="#6798E4" transform="translate(213.6875,186.75)"/>
<path d="M0 0 C1.32 0 2.64 0 4 0 C4.5625 1.9375 4.5625 1.9375 5 4 C4 5 4 5 1.4375 5.0625 C0.2309375 5.0315625 0.2309375 5.0315625 -1 5 C-0.67 3.35 -0.34 1.7 0 0 Z " fill="#4190FB" transform="translate(199,162)"/>
<path d="M0 0 C-0.33 0.99 -0.66 1.98 -1 3 C-5.36228979 5.028972 -8.35656242 5.10558038 -13 4 C-13 3.67 -13 3.34 -13 3 C-10.02148438 2.70703125 -10.02148438 2.70703125 -7.04296875 2.4140625 C-4.27846244 1.85376103 -2.85683422 0 0 0 Z " fill="#6793E1" transform="translate(94,154)"/>
<path d="M0 0 C1 3 1 3 -0.3125 6.625 C-2 10 -2 10 -4 11 C-4 9.35 -4 7.7 -4 6 C-3.34 6 -2.68 6 -2 6 C-1.855625 5.195625 -1.71125 4.39125 -1.5625 3.5625 C-1 1 -1 1 0 0 Z " fill="#6E9EE4" transform="translate(123,149)"/>
<path d="M0 0 C0.99 0 1.98 0 3 0 C3.33 0.99 3.66 1.98 4 3 C3.01 3.33 2.02 3.66 1 4 C0.67 5.98 0.34 7.96 0 10 C-0.33 10 -0.66 10 -1 10 C-0.67 6.7 -0.34 3.4 0 0 Z " fill="#629AF0" transform="translate(176,134)"/>
<path d="M0 0 C0.66 0.33 1.32 0.66 2 1 C1.2884375 2.051875 1.2884375 2.051875 0.5625 3.125 C-1.08739857 6.16081337 -1.60368464 8.59168786 -2 12 C-2.33 12 -2.66 12 -3 12 C-3.08090971 10.37581255 -3.13914995 8.75048255 -3.1875 7.125 C-3.22230469 6.22007813 -3.25710937 5.31515625 -3.29296875 4.3828125 C-3.19628906 3.59648438 -3.09960938 2.81015625 -3 2 C-2.01 1.34 -1.02 0.68 0 0 Z " fill="#4A8AED" transform="translate(86,110)"/>
<path d="M0 0 C1.22589844 0.01353516 1.22589844 0.01353516 2.4765625 0.02734375 C3.41628906 0.04474609 3.41628906 0.04474609 4.375 0.0625 C4.375 0.3925 4.375 0.7225 4.375 1.0625 C-5.03502278 3.17411731 -5.03502278 3.17411731 -9.625 4.0625 C-6.41036203 0.70174212 -4.65285589 -0.06646937 0 0 Z " fill="#6D9BE2" transform="translate(225.625,83.9375)"/>
<path d="M0 0 C2.1875 0.3125 2.1875 0.3125 4 1 C4 2.65 4 4.3 4 6 C3.01 6.495 3.01 6.495 2 7 C2 5.35 2 3.7 2 2 C0.35 2.33 -1.3 2.66 -3 3 C-1.75 1.4375 -1.75 1.4375 0 0 Z " fill="#DAEFFE" transform="translate(194,152)"/>
<path d="M0 0 C-0.61875 0.2475 -1.2375 0.495 -1.875 0.75 C-4.35068687 2.20628639 -4.95125002 3.37812506 -6 6 C-6.66 5.67 -7.32 5.34 -8 5 C-7.1875 2.5625 -7.1875 2.5625 -6 0 C-3 -1 -3 -1 0 0 Z " fill="#81A5EA" transform="translate(232,108)"/>
<path d="M0 0 C0.625 1.875 0.625 1.875 1 4 C0.34 4.66 -0.32 5.32 -1 6 C-3.125 5.625 -3.125 5.625 -5 5 C-3.35 3.35 -1.7 1.7 0 0 Z " fill="#6A9AEA" transform="translate(251,103)"/>
<path d="M0 0 C1 3 1 3 0.25 5.5 C-0.93511657 7.87023314 -2.01292881 9.28389306 -4 11 C-3.48964169 6.6109185 -2.47785723 3.66291938 0 0 Z " fill="#E0F0FE" transform="translate(191,90)"/>
<path d="M0 0 C0 0.66 0 1.32 0 2 C-3.85756507 4.15305957 -6.55129785 5.39253254 -11 5 C-7.72709962 2.33319229 -4.35126896 0 0 0 Z " fill="#769FE7" transform="translate(203,184)"/>
<path d="M0 0 C0.66 0.33 1.32 0.66 2 1 C1.19152271 2.16945792 0.37810888 3.33550461 -0.4375 4.5 C-0.88996094 5.1496875 -1.34242188 5.799375 -1.80859375 6.46875 C-2.20175781 6.9740625 -2.59492188 7.479375 -3 8 C-3.33 8 -3.66 8 -4 8 C-4 6.35 -4 4.7 -4 3 C-3.01 3 -2.02 3 -1 3 C-0.67 2.01 -0.34 1.02 0 0 Z " fill="#6797E8" transform="translate(257,108)"/>
<path d="M0 0 C1.32 0 2.64 0 4 0 C4 1.32 4 2.64 4 4 C1.03 3.505 1.03 3.505 -2 3 C-1.34 2.01 -0.68 1.02 0 0 Z " fill="#5393F0" transform="translate(212,68)"/>
<path d="M0 0 C0 3 0 3 -2 6 C-4.625 6.6875 -4.625 6.6875 -7 7 C-4.66666667 4.66666667 -2.33333333 2.33333333 0 0 Z " fill="#749FE4" transform="translate(216,173)"/>
<path d="M0 0 C0.66 0 1.32 0 2 0 C2 0.99 2 1.98 2 3 C2.99 3.33 3.98 3.66 5 4 C5 4.99 5 5.98 5 7 C3.0625 6.3125 3.0625 6.3125 1 5 C0.25 2.375 0.25 2.375 0 0 Z " fill="#70A0E3" transform="translate(179,161)"/>
<path d="M0 0 C0.66 0.33 1.32 0.66 2 1 C-0.97 4.96 -0.97 4.96 -4 9 C-4.33 8.01 -4.66 7.02 -5 6 C-4.01 5.67 -3.02 5.34 -2 5 C-0.78130071 2.49552484 -0.78130071 2.49552484 0 0 Z " fill="#739EE1" transform="translate(117,160)"/>
</svg>
